<?xml version="1.0" encoding="utf-8"?><svg xmlns="http://www.w3.org/2000/svg" xmlns:xlink="http://www.w3.org/1999/xlink"><symbol fill="none" viewBox="0 0 6 10" id="chevron-navigation-icon" xmlns="http://www.w3.org/2000/svg"><path d="m1 9 4-4-4-4" stroke="var(--nav-icon-color)" stroke-width="2" stroke-linecap="round" stroke-linejoin="round"/></symbol><symbol fill="none" viewBox="0 0 195 39" id="dashboard-logo" xmlns="http://www.w3.org/2000/svg"><defs><clipPath id="ba"><path transform="translate(0 1)" fill="#fff" fill-opacity="0" d="M0 0h37v37H0z"/></clipPath></defs><path d="M108.85 15q-1.21-.62-2.73-.62-1.43 0-2.6.54-1.02.46-1.69 1.24l-.18.22V9.76h-3.64V29h3.64v-7.96q0-1.69.84-2.61l.03-.03q.21-.22.45-.39.78-.54 1.93-.54 1.1 0 1.86.52.26.17.48.41.86.92.86 2.64V29h3.64v-8.45q0-1.95-.72-3.34-.5-.99-1.28-1.63-.33-.27-.71-.48l-.18-.1Zm10.37 1.52-.12.18V9.76h-3.64V29h3.64v-2.06q.06.09.13.18.7.89 1.8 1.48 1.21.63 2.83.63 1.19 0 2.23-.39.57-.21 1.1-.54.35-.22.66-.48 1.04-.86 1.71-2.16.87-1.71.87-3.92t-.87-3.89q-.66-1.26-1.67-2.08-.33-.27-.7-.5-.49-.3-1.02-.5-1.08-.41-2.31-.41-1.59 0-2.83.65-1.12.59-1.81 1.51Zm59.56 1.35q-.87 1.69-.87 3.87 0 2.21.87 3.92.67 1.3 1.7 2.15.32.27.68.49.64.39 1.34.62.94.31 1.98.31 1.61 0 2.83-.65 1.05-.55 1.7-1.41.11-.15.21-.31V29h3.69V9.76h-3.69v6.83q-.04-.04-.07-.09-.74-.95-1.96-1.53-.66-.32-1.36-.47-.64-.14-1.32-.14-1.21 0-2.27.39-.56.21-1.08.52-.36.22-.68.47-1.03.84-1.7 2.13ZM58.17 11.96q-2.17-1.11-5.04-1.11h-6.34V29h6.34q2.87 0 5.04-1.12 1.33-.69 2.29-1.72.6-.65 1.06-1.44 1.18-2.04 1.18-4.77 0-2.69-1.15-4.74-.01-.03-.03-.06-.5-.88-1.18-1.58-.92-.96-2.17-1.61Zm-1.08 12.68q-1.52 1.26-4.08 1.26h-2.58V13.91h2.58q2.49 0 4 1.22.22.18.41.38.18.19.34.39 1.23 1.54 1.23 4.05t-1.23 4.02q-.16.2-.34.37-.15.16-.33.3Zm8.53-6.77q-.87 1.69-.87 3.87 0 2.21.87 3.92.69 1.34 1.77 2.21.29.23.6.43.61.38 1.27.6.97.33 2.04.33 1.62 0 2.85-.66 1.24-.67 1.94-1.68V29h3.67V14.59h-3.67v2.05q-.73-.98-1.94-1.63-1.21-.65-2.82-.65-1.22 0-2.29.4-.54.2-1.05.51-.32.19-.6.42-1.08.85-1.77 2.18Zm20.3 10.73q1.4.63 3.17.63 1.72 0 3-.56 1.26-.54 1.94-1.5.02-.02.04-.05.29-.41.46-.87.23-.64.23-1.36-.02-1.35-.69-2.2l-.08-.1q-.52-.62-1.18-1-.27-.17-.58-.29-1.01-.42-2.57-.8-1.53-.4-2.26-.77-.45-.24-.62-.6-.11-.23-.11-.51 0-.33.15-.59.13-.25.39-.42.53-.36 1.52-.36 1.07 0 1.7.5.25.2.41.45.26.39.31.92h3.48q-.1-1.42-.78-2.46-.37-.56-.91-1.01-.03-.03-.07-.06-1.52-1.23-4.04-1.23-1.74 0-3.03.57-1.28.57-1.97 1.55 0 .01-.01.01-.34.49-.51 1.04-.17.54-.17 1.14 0 1.4.68 2.26.03.03.05.06.45.51.99.87.37.24.78.41 1.03.41 2.65.8 1.56.42 2.27.76.43.22.61.56.1.22.1.5 0 .24-.08.45-.13.35-.5.61-.58.42-1.62.42-.95 0-1.62-.43-.09-.06-.17-.12-.43-.33-.64-.77-.13-.28-.18-.61H82.8q.03.56.2 1.08.22.71.7 1.34l.04.06q.81 1.05 2.18 1.68Zm50.64-.01q1.45.64 3.18.64 1.78 0 3.27-.66.27-.12.54-.26.8-.43 1.44-1.03.73-.69 1.26-1.59.09-.15.17-.31.83-1.57.83-3.59 0-2.07-.86-3.68-.05-.11-.11-.22-.52-.9-1.25-1.58-.63-.6-1.42-1.03-.34-.18-.7-.33-1.41-.59-3.06-.59-1.67 0-3.08.59-.36.15-.7.33-.76.42-1.38.99-.75.7-1.29 1.62l-.1.18q-.87 1.63-.87 3.72 0 2.21.94 3.89l.01.01q.53.95 1.29 1.66.59.55 1.32.96.28.15.57.28Zm13.56-10.72q-.87 1.69-.87 3.87 0 2.21.87 3.92.69 1.34 1.77 2.21.29.23.6.43.61.38 1.27.6.97.33 2.05.33 1.61 0 2.84-.66 1.24-.67 1.94-1.68V29h3.67V14.59h-3.67v2.05q-.73-.98-1.94-1.63-1.21-.65-2.82-.65-1.22 0-2.29.4-.54.2-1.05.51-.32.19-.6.42-1.08.85-1.77 2.18Zm22.65-2.28q-.61.52-1.05 1.24v-2.24h-3.64V29h3.64v-7.18q0-2 .87-2.81t2.59-.81h.96v-3.82q-1.29 0-2.32.51-.14.07-.27.15-.42.24-.78.55Zm-32.08 10.35q-.46.12-.95.12-.87 0-1.57-.34-.56-.28-1.02-.77-1.02-1.1-1.02-3.16 0-1.98.98-3.08.03-.04.07-.07.49-.52 1.1-.8.68-.31 1.51-.31.81 0 1.49.3.63.27 1.15.81.06.06.12.13.96 1.09.96 3.02 0 1.38-.52 2.34-.42.77-1.06 1.24-.16.11-.33.21-.44.24-.91.36Zm-65.12-6.42q.52.95.52 2.27 0 1.33-.52 2.28-.36.66-.91 1.11-.23.19-.49.34-.45.26-.93.39-.47.12-.97.12-.41 0-.81-.09-.54-.13-1.05-.43-.16-.1-.31-.21-.66-.49-1.09-1.28-.54-.98-.54-2.28 0-1.3.54-2.25.45-.8 1.12-1.27.13-.09.27-.17.34-.2.71-.32.55-.17 1.16-.17.5 0 .97.12.48.13.93.38.25.15.47.33.56.45.93 1.13Zm50.61-.03q.53.95.53 2.25 0 1.33-.53 2.29-.42.76-1.05 1.24-.17.13-.35.24-.43.26-.9.39-.47.13-.99.13-.43 0-.84-.1-.53-.12-1.02-.41-.17-.1-.34-.22-.64-.48-1.06-1.24-.53-.97-.53-2.27 0-1.29.53-2.25.43-.79 1.09-1.27.15-.11.31-.21.49-.28 1.02-.41.41-.09.84-.09.57 0 1.09.15.41.12.8.34.17.1.33.22.64.46 1.07 1.22Zm33.89.03q.52.95.52 2.27 0 1.33-.52 2.28-.36.66-.91 1.11-.23.19-.49.34-.45.26-.93.39-.47.12-.97.12-.41 0-.81-.09-.54-.13-1.05-.43-.16-.1-.31-.21-.66-.49-1.09-1.28-.54-.98-.54-2.28 0-1.3.54-2.25.45-.8 1.12-1.27.13-.09.27-.17.34-.2.72-.32.54-.17 1.15-.17.5 0 .97.12.48.13.93.38.25.15.47.33.56.45.93 1.13Zm28.65 0q.52.95.52 2.27 0 1.33-.52 2.28-.36.66-.9 1.11-.24.19-.5.34-.45.26-.93.39-.47.12-.97.12-.41 0-.81-.09-.54-.13-1.05-.43-.16-.1-.31-.21-.66-.49-1.09-1.28-.53-.98-.53-2.28 0-1.3.53-2.25.45-.8 1.12-1.27.13-.09.27-.17.35-.2.72-.32.55-.17 1.15-.17.5 0 .97.12.48.13.93.38.25.15.47.33.56.45.93 1.13Z" fill="#000" fill-rule="evenodd"/><path fill="none" d="M0 1h37v37H0z"/><g clip-path="url(#ba)" fill="#000"><path d="M18.5 35.88c-1.04 0-2.09-.23-2.9-.71l-8.48-4.88c-3.46-2.33-3.67-2.69-3.67-6.34v-8.91c0-3.65.2-4.01 3.59-6.31l8.54-4.93c1.62-.94 4.16-.94 5.78 0l8.51 4.9c3.46 2.33 3.67 2.69 3.67 6.34v8.89c0 3.66-.2 4.01-3.59 6.31l-8.54 4.93c-.83.48-1.88.71-2.91.71Zm0-30.46c-.65 0-1.28.12-1.73.38l-8.48 4.91c-2.51 1.69-2.51 1.69-2.51 4.33v8.89c0 2.64 0 2.64 2.57 4.38l8.42 4.86c.91.52 2.56.52 3.47 0l8.48-4.9c2.49-1.7 2.49-1.7 2.49-4.34v-8.89c0-2.64 0-2.64-2.57-4.38L20.22 5.8c-.45-.26-1.08-.38-1.72-.38Z"/><path d="M18.5 25.28a5.785 5.785 0 1 1-.01-11.57 5.785 5.785 0 0 1 .01 11.57Zm0-9.25a3.465 3.465 0 1 0-.01 6.93 3.465 3.465 0 0 0 .01-6.93Z"/></g></symbol><symbol fill="none" viewBox="0 0 24 24" id="discount-icon" xmlns="http://www.w3.org/2000/svg"><path d="M12 22.75c-.63 0-1.22-.24-1.66-.69l-1.52-1.52c-.12-.12-.44-.25-.6-.25H6.06c-1.3 0-2.35-1.05-2.35-2.35v-2.16c0-.16-.13-.48-.25-.6l-1.52-1.52c-.44-.44-.69-1.03-.69-1.66 0-.63.24-1.22.69-1.66l1.52-1.52c.12-.12.25-.44.25-.6V6.06c0-1.3 1.05-2.35 2.35-2.35h2.16c.16 0 .48-.13.6-.25l1.52-1.52c.88-.88 2.44-.88 3.32 0l1.52 1.52c.12.12.44.25.6.25h2.16c1.3 0 2.35 1.05 2.35 2.35v2.16c0 .16.13.48.25.6l1.52 1.52c.44.44.69 1.03.69 1.66 0 .63-.24 1.22-.69 1.66l-1.52 1.52c-.12.12-.25.44-.25.6v2.16c0 1.3-1.05 2.35-2.35 2.35h-2.16c-.16 0-.48.13-.6.25l-1.52 1.52c-.44.45-1.03.69-1.66.69Zm-7.48-8.63c.4.4.69 1.1.69 1.66v2.16c0 .47.38.85.85.85h2.16c.56 0 1.26.29 1.66.69L11.4 21c.32.32.88.32 1.2 0l1.52-1.52c.4-.4 1.1-.69 1.66-.69h2.16c.47 0 .85-.38.85-.85v-2.16c0-.56.29-1.26.69-1.66L21 12.6a.84.84 0 0 0 .25-.6c0-.23-.09-.44-.25-.6l-1.52-1.52c-.4-.4-.69-1.1-.69-1.66V6.06a.85.85 0 0 0-.85-.85h-2.16c-.56 0-1.26-.29-1.66-.69L12.6 3a.87.87 0 0 0-1.2 0L9.88 4.52c-.4.4-1.1.69-1.66.69H6.06a.85.85 0 0 0-.85.85v2.16c0 .56-.29 1.26-.69 1.66L3 11.4c-.16.16-.25.37-.25.6 0 .23.09.44.25.6l1.52 1.52Z" fill="var(--nav-icon-color)"/><path d="M15 16c-.56 0-1.01-.45-1.01-1s.45-1 1-1 1 .45 1 1-.44 1-.99 1ZM9.01 10C8.45 10 8 9.55 8 9s.45-1 1-1 1 .45 1 1-.44 1-.99 1ZM9 15.75c-.19 0-.38-.07-.53-.22a.754.754 0 0 1 0-1.06l6-6c.29-.29.77-.29 1.06 0 .29.29.29.77 0 1.06l-6 6c-.15.15-.34.22-.53.22Z" fill="var(--nav-icon-color)"/></symbol><symbol fill="none" viewBox="0 0 22 22" id="help-icon" xmlns="http://www.w3.org/2000/svg"><path d="M7 21.32c-.28 0-.57-.07-.83-.21-.57-.3-.92-.9-.92-1.54v-1.42c-3.02-.31-5-2.53-5-5.71v-6C.25 3 2.56.69 6 .69h10c3.44 0 5.75 2.31 5.75 5.75v6c0 3.44-2.31 5.75-5.75 5.75h-3.77l-4.26 2.84c-.29.19-.63.29-.97.29ZM6 2.18c-2.58 0-4.25 1.67-4.25 4.25v6c0 2.58 1.67 4.25 4.25 4.25.41 0 .75.34.75.75v2.13c0 .13.08.19.13.22s.15.06.26-.01l4.45-2.96c.12-.08.27-.13.42-.13h4c2.58 0 4.25-1.67 4.25-4.25v-6c0-2.58-1.67-4.25-4.25-4.25H6Z" fill="var(--nav-icon-color)"/><path d="M11 11.11c-.41 0-.75-.34-.75-.75v-.21c0-1.16.85-1.73 1.17-1.95.37-.25.49-.42.49-.68 0-.5-.41-.91-.91-.91s-.91.41-.91.91c0 .41-.34.75-.75.75s-.75-.34-.75-.75c0-1.33 1.08-2.41 2.41-2.41s2.41 1.08 2.41 2.41c0 1.14-.84 1.71-1.15 1.92-.39.26-.51.43-.51.71v.21c0 .42-.34.75-.75.75ZM11 13.6a.749.749 0 1 1-.002-1.498A.749.749 0 0 1 11 13.6Z" fill="var(--nav-icon-color)"/></symbol><symbol fill="none" viewBox="0 0 24 24" id="key-icon" xmlns="http://www.w3.org/2000/svg"><path d="M9 22h6c5 0 7-2 7-7V9c0-5-2-7-7-7H9C4 2 2 4 2 9v6c0 5 2 7 7 7Z" stroke="var(--nav-icon-color)" stroke-width="1.5" stroke-linecap="round" stroke-linejoin="round"/><path d="M16.28 13.61a4.147 4.147 0 0 1-4.18 1.03l-2.59 2.58c-.18.19-.55.31-.82.27l-1.2-.16c-.4-.05-.76-.43-.82-.82l-.16-1.2c-.04-.26.09-.63.27-.82l2.58-2.58c-.44-1.43-.1-3.05 1.03-4.18 1.62-1.62 4.26-1.62 5.89 0 1.62 1.61 1.62 4.25 0 5.88ZM10.45 16.28l-.85-.86" stroke="var(--nav-icon-color)" stroke-width="1.5" stroke-miterlimit="10" stroke-linecap="round" stroke-linejoin="round"/><path d="M13.395 10.7h.008" stroke="var(--nav-icon-color)" stroke-width="2" stroke-linecap="round" stroke-linejoin="round"/></symbol><symbol fill="none" viewBox="0 0 24 24" id="product-icon" xmlns="http://www.w3.org/2000/svg"><path d="M15 22.75H9c-5.43 0-7.75-2.32-7.75-7.75V9c0-5.43 2.32-7.75 7.75-7.75h6c5.43 0 7.75 2.32 7.75 7.75v6c0 5.43-2.32 7.75-7.75 7.75Zm-6-20C4.39 2.75 2.75 4.39 2.75 9v6c0 4.61 1.64 6.25 6.25 6.25h6c4.61 0 6.25-1.64 6.25-6.25V9c0-4.61-1.64-6.25-6.25-6.25H9Z" fill="var(--nav-icon-color)"/><path d="M12 13.08c-.13 0-.26-.03-.38-.1l-5.3-3.06a.742.742 0 0 1-.27-1.02c.21-.36.67-.48 1.02-.27l4.92 2.85 4.89-2.83c.36-.21.82-.08 1.02.27.2.35.08.82-.27 1.02l-5.26 3.04c-.11.06-.24.1-.37.1Z" fill="var(--nav-icon-color)"/><path d="M12 18.52c-.41 0-.75-.34-.75-.75v-5.44c0-.41.34-.75.75-.75s.75.34.75.75v5.44c0 .41-.34.75-.75.75Z" fill="var(--nav-icon-color)"/><path d="M12 18.75c-.58 0-1.15-.13-1.61-.38l-3.2-1.78c-.96-.53-1.7-1.8-1.7-2.9V10.3c0-1.09.75-2.36 1.7-2.9l3.2-1.78c.92-.51 2.3-.51 3.22 0l3.2 1.78c.96.53 1.7 1.8 1.7 2.9v3.39c0 1.09-.75 2.36-1.7 2.9l-3.2 1.78c-.46.26-1.03.38-1.61.38Zm0-12c-.33 0-.65.06-.88.19l-3.2 1.78c-.49.27-.93 1.03-.93 1.58v3.39c0 .56.44 1.31.93 1.58l3.2 1.78c.46.26 1.3.26 1.76 0l3.2-1.78c.49-.27.93-1.03.93-1.58V10.3c0-.56-.44-1.31-.93-1.58l-3.2-1.78c-.23-.13-.55-.19-.88-.19Z" fill="var(--nav-icon-color)"/></symbol><symbol fill="none" viewBox="0 0 24 24" id="search-icon" xmlns="http://www.w3.org/2000/svg"><path d="M11 19a8 8 0 1 0 0-16 8 8 0 0 0 0 16ZM21 21l-4.35-4.35" stroke="var(--svg-icon-color)" stroke-width="2" stroke-linecap="round" stroke-linejoin="round"/></symbol><symbol fill="none" viewBox="0 0 24 24" id="user-icon" xmlns="http://www.w3.org/2000/svg"><path d="M15 22.75H9c-1.32 0-2.42-.13-3.35-.41a.767.767 0 0 1-.54-.78c.25-2.99 3.28-5.34 6.89-5.34s6.63 2.34 6.89 5.34c.03.36-.19.68-.54.78-.93.28-2.03.41-3.35.41Zm-8.28-1.69c.66.13 1.41.19 2.28.19h6c.87 0 1.62-.06 2.28-.19-.53-1.92-2.72-3.34-5.28-3.34s-4.75 1.42-5.28 3.34Z" fill="var(--nav-icon-color)"/><path d="M15 2H9C4 2 2 4 2 9v6c0 3.78 1.14 5.85 3.86 6.62.22-2.6 2.89-4.65 6.14-4.65 3.25 0 5.92 2.05 6.14 4.65C20.86 20.85 22 18.78 22 15V9c0-5-2-7-7-7Zm-3 12.17c-1.98 0-3.58-1.61-3.58-3.59C8.42 8.6 10.02 7 12 7s3.58 1.6 3.58 3.58-1.6 3.59-3.58 3.59Z" stroke="var(--nav-icon-color)" stroke-width="1.5" stroke-linecap="round" stroke-linejoin="round"/><path d="M12 14.92a4.34 4.34 0 0 1-4.33-4.34c0-2.39 1.94-4.33 4.33-4.33s4.33 1.94 4.33 4.33A4.34 4.34 0 0 1 12 14.92Zm0-7.17a2.836 2.836 0 0 0 0 5.67 2.836 2.836 0 0 0 0-5.67Z" fill="var(--nav-icon-color)"/></symbol><symbol fill="none" viewBox="0 0 24 24" id="wallet-icon" xmlns="http://www.w3.org/2000/svg"><path d="M10.752 16.86v2.03c0 1.72-1.6 3.11-3.57 3.11-1.97 0-3.58-1.39-3.58-3.11v-2.03c0 1.72 1.6 2.94 3.58 2.94 1.97 0 3.57-1.23 3.57-2.94Z" stroke="var(--nav-icon-color)" stroke-width="1.5" stroke-linecap="round" stroke-linejoin="round"/><path d="M10.75 14.11c0 .5-.14.96-.38 1.36-.59.97-1.8 1.58-3.2 1.58-1.4 0-2.61-.62-3.2-1.58-.24-.4-.38-.86-.38-1.36 0-.86.4-1.63 1.04-2.19.65-.57 1.54-.91 2.53-.91.99 0 1.88.35 2.53.91.66.55 1.06 1.33 1.06 2.19Z" stroke="var(--nav-icon-color)" stroke-width="1.5" stroke-linecap="round" stroke-linejoin="round"/><path d="M11.15 14.11v2.75c0 1.72-1.6 2.94-3.57 2.94C5.61 19.8 4 18.57 4 16.86v-2.75C4 12.39 5.6 11 7.58 11c.99 0 1.88.35 2.53.91.64.56 1.04 1.34 1.04 2.2ZM22 10.97v2.06c0 .55-.44 1-1 1.02h-1.96c-1.08 0-2.07-.79-2.16-1.87-.06-.63.18-1.22.6-1.63.37-.38.88-.6 1.44-.6H21c.56.02 1 .47 1 1.02Z" stroke="var(--nav-icon-color)" stroke-width="1.5" stroke-linecap="round" stroke-linejoin="round"/><path d="M2 10.5v-2c0-2.72 1.64-4.62 4.19-4.94.26-.04.53-.06.81-.06h9c.26 0 .51.01.75.05C19.33 3.85 21 5.76 21 8.5v1.45h-2.08c-.56 0-1.07.22-1.44.6-.42.41-.66 1-.6 1.63.09 1.08 1.08 1.87 2.16 1.87H21v1.45c0 3-2 5-5 5h-2.5" stroke="var(--nav-icon-color)" stroke-width="1.5" stroke-linecap="round" stroke-linejoin="round"/></symbol></svg>